<?xml version="1.0" encoding="utf-8"?>
<!-- Generator: Adobe Illustrator 23.0.3, SVG Export Plug-In . SVG Version: 6.00 Build 0)  -->
<svg version="1.1" id="Calque_1" xmlns="http://www.w3.org/2000/svg" xmlns:xlink="http://www.w3.org/1999/xlink" x="0px" y="0px"
	 viewBox="0 0 50 50" style="enable-background:new 0 0 50 50;" xml:space="preserve">
<style type="text/css">
	.st0{display:none;}
	.st1{display:inline;fill:#FFFFFF;}
	.st2{display:inline;fill:#D2AD89;}
	.st3{display:none;fill:#D2AD89;}
	.st4{fill:#303030;}
</style>
<g class="st0">
	<path class="st1" d="M20.56,29.2h-7.79c-1.38,0-2.5-1.12-2.5-2.5V12.5c0-1.38,1.12-2.5,2.5-2.5h7.79c1.38,0,2.5,1.12,2.5,2.5V26.7
		C23.06,28.08,21.94,29.2,20.56,29.2z"/>
	<path class="st2" d="M37.23,18.86h-7.66c-1.38,0-2.5-1.12-2.5-2.5V12.5c0-1.38,1.12-2.5,2.5-2.5h7.66c1.38,0,2.5,1.12,2.5,2.5v3.87
		C39.73,17.74,38.61,18.86,37.23,18.86z"/>
	<path class="st2" d="M37.24,40H12.76c-1.38,0-2.5-1.12-2.5-2.5v-1.8c0-1.38,1.12-2.5,2.5-2.5h24.49c1.38,0,2.5,1.12,2.5,2.5v1.8
		C39.74,38.88,38.62,40,37.24,40z"/>
	<path class="st1" d="M37.23,29.52h-7.66c-1.38,0-2.5-1.12-2.5-2.5v-1.65c0-1.38,1.12-2.5,2.5-2.5h7.66c1.38,0,2.5,1.12,2.5,2.5
		v1.65C39.73,28.4,38.61,29.52,37.23,29.52z"/>
</g>
<g class="st0">
	<path class="st1" d="M33.5,37.5v-25c0-1.38,1.12-2.5,2.5-2.5h2c1.38,0,2.5,1.12,2.5,2.5v25c0,1.38-1.12,2.5-2.5,2.5h-2
		C34.62,40,33.5,38.88,33.5,37.5z"/>
	<path class="st2" d="M21.5,37.5v-20c0-1.38,1.12-2.5,2.5-2.5h2c1.38,0,2.5,1.12,2.5,2.5v20c0,1.38-1.12,2.5-2.5,2.5h-2
		C22.62,40,21.5,38.88,21.5,37.5z"/>
	<path class="st2" d="M9.5,37.5v-10c0-1.38,1.12-2.5,2.5-2.5h2c1.38,0,2.5,1.12,2.5,2.5v10c0,1.38-1.12,2.5-2.5,2.5h-2
		C10.62,40,9.5,38.88,9.5,37.5z"/>
</g>
<path class="st3" d="M37.16,34.57c0,0.59-0.09,1.17-0.26,1.72c-0.91,2.87-3.9,4.56-6.83,3.87c-4.75-1.12-9.58-4.97-12.58-8.71
	c-2.89-3.6-4.66-8.04-4.66-12.68c0-2.73,0.31-6.06,2.63-7.86c3.74-2.91,9.33-0.2,9.33,4.53c0,2.91-2.16,5.32-4.96,5.71
	c1.37,3.69,3.85,7.01,7.14,9.72c1.05-1.27,2.64-2.06,4.41-2.06C34.58,28.8,37.16,31.38,37.16,34.57z"/>
<g>
	<path class="st4" d="M21.5,37.5v-25c0-1.38,1.12-2.5,2.5-2.5h2c1.38,0,2.5,1.12,2.5,2.5v25c0,1.38-1.12,2.5-2.5,2.5h-2
		C22.62,40,21.5,38.88,21.5,37.5z"/>
	<path class="st4" d="M12.5,21.5h25c1.38,0,2.5,1.12,2.5,2.5v2c0,1.38-1.12,2.5-2.5,2.5h-25c-1.38,0-2.5-1.12-2.5-2.5v-2
		C10,22.62,11.12,21.5,12.5,21.5z"/>
</g>
</svg>
