<?xml version="1.0" encoding="utf-8"?>
<!-- Generator: Adobe Illustrator 23.0.3, SVG Export Plug-In . SVG Version: 6.00 Build 0)  -->
<svg version="1.1" id="Calque_1" xmlns="http://www.w3.org/2000/svg" xmlns:xlink="http://www.w3.org/1999/xlink" x="0px" y="0px"
	 viewBox="0 0 55 55" style="enable-background:new 0 0 55 55;" xml:space="preserve">
<style type="text/css">
	.st0{fill:#FFFFFF;}
</style>
<path id="Tracé_6" class="st0" d="M5.23,24.72c-0.11,0.85-0.17,1.7-0.18,2.56H2c0.01-0.86,0.07-1.71,0.17-2.56L5.23,24.72z"/>
<path id="Tracé_7" class="st0" d="M5.77,21.88c-0.2,0.75-0.35,1.52-0.46,2.29H2.24c0.11-0.77,0.25-1.54,0.43-2.29H5.77z"/>
<path id="Tracé_17" class="st0" d="M6.58,19.32c-0.26,0.66-0.48,1.33-0.66,2.02H2.81c0.18-0.68,0.38-1.36,0.62-2.02H6.58z"/>
<path id="Tracé_18" class="st0" d="M7.74,16.76c-0.35,0.66-0.66,1.33-0.94,2.02H3.62c0.26-0.69,0.55-1.36,0.86-2.02H7.74z"/>
<g>
	<path id="Tracé_9" class="st0" d="M38.53,44.04c-0.67,0.63-1.41,1.19-2.2,1.67c0,0-2.27,1.04-3.01,1.35
		c-1.64,0.63-3.38,0.94-5.13,0.9h-0.09C30.96,45.37,34.68,43.97,38.53,44.04z"/>
	<path id="Tracé_10" class="st0" d="M40.76,41.4c-0.09,0.13-0.17,0.25-0.26,0.38l-1.3,1.59c-0.04,0.05-0.08,0.09-0.13,0.13
		c-4.36-0.19-8.62,1.41-11.77,4.43c-0.93-0.04-1.85-0.15-2.77-0.3c3.82-4.19,9.18-6.59,14.04-6.25
		C39.3,41.43,40.03,41.44,40.76,41.4z"/>
	<path id="Tracé_12" class="st0" d="M42.82,37.23l-0.59,1.51c-0.32,0.72-0.69,1.41-1.1,2.08l-0.2,0.02
		c-0.77,0.05-1.55,0.05-2.32-0.01c-5.08-0.34-10.66,2.18-14.6,6.56c-0.04,0.04-0.07,0.08-0.11,0.12c-1.18-0.24-2.33-0.56-3.46-0.98
		c4.13-4.6,9.9-7.39,16.07-7.77C38.68,38.66,40.83,38.14,42.82,37.23z"/>
	<path id="Tracé_13" class="st0" d="M43.81,33c-0.15,1.19-0.4,2.37-0.75,3.51c-2.06,1-4.29,1.58-6.57,1.71
		c-6.38,0.4-12.35,3.32-16.59,8.11c-0.83-0.32-1.63-0.71-2.4-1.16c-0.03-0.02-0.06-0.04-0.09-0.05c3.85-4.34,8.55-8.63,19.69-9.4
		C39.56,35.52,41.9,34.57,43.81,33z"/>
	<path id="Tracé_14" class="st0" d="M44,30.16c0,0.69-0.03,1.38-0.1,2.06l0,0c-0.07,0.06-0.14,0.11-0.21,0.17l-0.09,0.07
		c-1.85,1.55-4.13,2.49-6.54,2.7c-11.38,0.78-16.16,5.18-20.1,9.62c-0.01,0.01-0.02,0.02-0.03,0.03c-0.64-0.41-1.26-0.85-1.85-1.32
		c4.2-4.89,8.8-9.78,20.74-10.6c3.09-0.32,5.96-1.72,8.12-3.96C43.98,29.34,44,29.75,44,30.16z"/>
	<path id="Tracé_16" class="st0" d="M52.1,27.83c0.17,13.83-10.9,25.19-24.73,25.37C13.54,53.37,2.18,42.3,2,28.46
		c0-0.21,0-0.42,0-0.63h3.04c0.02,5.68,2.1,11.17,5.85,15.44l0.03,0.03c1.29,1.46,2.75,2.76,4.36,3.86c0.08,0.05,0.15,0.1,0.23,0.15
		c1.23,0.83,2.53,1.53,3.89,2.11c0.02,0.01,0.03,0.02,0.05,0.02c0.86,0.34,1.73,0.63,2.63,0.86c0.09,0.03,0.18,0.05,0.28,0.07
		c1.67,0.4,3.38,0.61,5.1,0.61c7.56,0,14.57-3.95,18.5-10.41l0.01-0.01c2.06-3.38,3.14-7.26,3.13-11.22c0-0.19,0-0.38-0.01-0.56
		v-0.02c0-0.05-0.01-0.1-0.01-0.14v-0.01c0-0.06-0.01-0.12-0.02-0.17c-0.02-0.2-0.05-0.4-0.07-0.6L52.1,27.83z"/>
	<path id="Tracé_19" class="st0" d="M9.3,14.2c-0.46,0.65-0.88,1.32-1.27,2.02H4.75c0.36-0.69,0.74-1.37,1.15-2.02H9.3z"/>
	<path id="Tracé_20" class="st0" d="M11.37,11.64c-0.6,0.64-1.16,1.31-1.68,2.02H6.26c0.47-0.7,0.97-1.37,1.5-2.02H11.37z"/>
	<path id="Tracé_21" class="st0" d="M14.18,9.07c-0.8,0.62-1.56,1.3-2.28,2.02H8.23c0.62-0.71,1.28-1.38,1.97-2.02H14.18z"/>
	<path id="Tracé_22" class="st0" d="M30.77,4.42c0.7,0,1.39,0.03,2.07,0.09C26.56,3.38,20.1,4.83,14.9,8.53h-4.09
		c9.22-7.93,22.82-8.05,32.17-0.27H17.87C21.7,5.75,26.18,4.41,30.77,4.42z"/>
	<path id="Tracé_23" class="st0" d="M49.35,16.22h-6.9c-2.36-1.93-5.18-3.22-8.18-3.76h12.71C47.88,13.64,48.67,14.9,49.35,16.22z"
		/>
	<path id="Tracé_24" class="st0" d="M50.48,18.78h-5.46c-0.59-0.72-1.24-1.4-1.94-2.02h6.54C49.94,17.42,50.22,18.09,50.48,18.78z"
		/>
	<path id="Tracé_25" class="st0" d="M51.3,21.34h-4.51c-0.4-0.7-0.84-1.38-1.33-2.02h5.23C50.92,19.98,51.12,20.66,51.3,21.34z"/>
	<path id="Tracé_26" class="st0" d="M51.86,24.17h-3.78c-0.28-0.79-0.61-1.55-1-2.29h4.35C51.61,22.63,51.75,23.4,51.86,24.17z"/>
	<path id="Tracé_27" class="st0" d="M52.1,27.28h-3.2c-0.14-0.87-0.35-1.72-0.63-2.56h3.66C52.03,25.57,52.09,26.43,52.1,27.28z"/>
	<path class="st0" d="M48.25,28.81v-0.02v-0.03c-0.01-0.03-0.01-0.06-0.01-0.09c0,0,0-0.01,0-0.01c0-0.04-0.01-0.07-0.01-0.11
		c0-0.01,0-0.02,0-0.03c-0.02-0.22-0.05-0.45-0.09-0.68c-0.01-0.05-0.02-0.11-0.02-0.15s-0.01-0.08-0.02-0.12
		c-0.01-0.09-0.03-0.18-0.05-0.27c-0.15-0.87-0.37-1.73-0.65-2.56v-0.01c-0.03-0.09-0.06-0.17-0.09-0.26
		c-0.03-0.09-0.06-0.18-0.1-0.27c-0.28-0.75-0.61-1.47-0.99-2.17c-0.02-0.04-0.04-0.08-0.07-0.12c-0.06-0.09-0.1-0.18-0.16-0.27
		c-0.05-0.09-0.1-0.18-0.16-0.27c-0.37-0.63-0.78-1.23-1.22-1.81c-0.06-0.08-0.12-0.14-0.19-0.23c-0.07-0.09-0.15-0.18-0.23-0.27
		c-0.08-0.09-0.16-0.18-0.24-0.27c-0.53-0.6-1.1-1.15-1.71-1.67c-0.25-0.22-0.51-0.42-0.77-0.62c-0.12-0.09-0.25-0.19-0.37-0.27
		c-0.22-0.16-0.45-0.31-0.67-0.46l-0.15-0.09c-0.24-0.16-0.49-0.31-0.74-0.45c-0.13-0.07-0.26-0.15-0.4-0.22
		c-0.1-0.06-0.2-0.11-0.32-0.16c-0.11-0.06-0.23-0.11-0.34-0.17c-1.63-0.78-3.36-1.29-5.15-1.54c-0.5-0.07-1.02-0.11-1.56-0.13
		c-0.24-0.01-0.48-0.02-0.74-0.02c-0.45,0-0.82-0.37-0.82-0.82V9.64c-1.81,0.08-3.59,0.45-5.29,1.09c-0.18,0.07-0.36,0.14-0.53,0.21
		c-0.1,0.04-0.21,0.08-0.32,0.13l-0.59,0.27c-0.45,0.21-0.88,0.45-1.31,0.7c-1.16,0.69-2.23,1.51-3.2,2.45
		c-0.1,0.11-0.21,0.21-0.31,0.31c-0.01,0.01-0.02,0.02-0.03,0.03c-0.02,0.02-0.03,0.03-0.05,0.05c-0.06,0.06-0.12,0.12-0.17,0.18
		c-0.01,0-0.01,0.01-0.02,0.02c-0.1,0.11-0.2,0.21-0.29,0.31c-0.09,0.1-0.18,0.2-0.26,0.3c-0.01,0-0.01,0.01-0.01,0.01
		c-0.02,0.02-0.04,0.05-0.06,0.07c-0.01,0-0.01,0.01-0.01,0.01c-0.12,0.14-0.23,0.28-0.34,0.42l-0.22,0.27
		c-0.12,0.16-0.23,0.31-0.34,0.47c-0.11,0.14-0.2,0.29-0.3,0.43c-0.05,0.07-0.1,0.14-0.14,0.22c-0.07,0.1-0.14,0.21-0.2,0.31
		c-0.06,0.09-0.11,0.18-0.16,0.26c-0.12,0.19-0.22,0.39-0.33,0.59l-0.15,0.27c-0.06,0.12-0.12,0.24-0.18,0.36
		c-0.07,0.15-0.14,0.3-0.21,0.45c-0.03,0.06-0.05,0.11-0.07,0.16c-0.03,0.07-0.06,0.14-0.09,0.21c-0.05,0.11-0.09,0.22-0.14,0.34
		s-0.09,0.22-0.13,0.34c-0.03,0.07-0.05,0.14-0.08,0.21s-0.05,0.14-0.07,0.22l-0.09,0.27c-0.03,0.08-0.05,0.16-0.08,0.24
		c-0.07,0.22-0.13,0.45-0.19,0.68c-0.04,0.14-0.08,0.28-0.11,0.43c-0.1,0.4-0.18,0.8-0.24,1.21l-0.04,0.27l-0.02,0.11
		c-0.11,0.78-0.16,1.56-0.16,2.34c0,0.09,0,0.21,0,0.33v0.02c0,0.06,0.01,0.11,0.01,0.17v0.11v0.3c0,0,0.01,0.08,0.01,0.12
		c1.07,0.25,2.16,0.47,3.23,0.66c1.86,0.33,3.81,0.59,5.81,0.76h0.02c1.63,0.14,3.28,0.23,4.91,0.26h0.01
		c0.48,0.01,0.97,0.02,1.5,0.02c0.22,0,0.43,0,0.64,0h0.02c1.52-0.02,3.05-0.08,4.52-0.18h0.03c0.83-0.06,1.67-0.14,2.49-0.23
		c0.02-0.01,0.05-0.01,0.07-0.01c0.35-0.04,0.68-0.08,0.99-0.12l0.74-0.1c1.56-0.16,3.1-0.54,4.57-1.11
		c0.04-0.02,0.09-0.04,0.13-0.05c0.08-0.03,0.16-0.04,0.25-0.04c0.08,0,0.16,0.01,0.24,0.04c0.05,0.01,0.1,0.03,0.15,0.06
		c0.01,0.01,0.03,0.01,0.04,0.02c0.16,0.1,0.28,0.25,0.34,0.43c0.03,0.06,0.04,0.13,0.05,0.2v0.02c0,0.02,0,0.03,0.01,0.05
		c0,0.01,0,0.02,0,0.03c0,0.01,0,0.01,0,0.02c0.07,0.55,0.1,1.1,0.1,1.65c0,0.42-0.01,0.84-0.03,1.25c-0.01,0.13-0.02,0.27-0.03,0.4
		c-0.01,0.13-0.02,0.27-0.03,0.4c-0.01,0.14-0.03,0.29-0.04,0.44c0,0.01,0,0.02,0,0.02c-0.12,1.11-0.33,2.21-0.62,3.29
		c-0.03,0.12-0.06,0.24-0.1,0.36s-0.07,0.25-0.11,0.37l-0.11,0.36c-0.03,0.09-0.06,0.18-0.09,0.27c0,0.01-0.01,0.02-0.01,0.03
		l-0.63,1.61c0,0.01-0.01,0.02-0.01,0.04c-0.24,0.54-0.51,1.07-0.79,1.57c-0.06,0.11-0.12,0.21-0.18,0.31
		c-0.06,0.1-0.13,0.22-0.19,0.31c-0.05,0.09-0.11,0.18-0.17,0.27c-0.15,0.23-0.3,0.46-0.47,0.7l-0.03,0.04l-1.04,1.28l-0.21,0.25
		l-0.04,0.05c-0.01,0.01-0.02,0.03-0.03,0.04c-0.05,0.06-0.1,0.11-0.15,0.16c-0.09,0.09-0.18,0.18-0.27,0.26
		c-0.78,0.78-1.66,1.46-2.6,2.03c-0.03,0.02-0.06,0.03-0.09,0.05c-0.09,0.04-2.27,1.04-3.01,1.36c-1.72,0.67-3.56,0.99-5.41,0.95
		c-0.17,0-0.34,0-0.52-0.01c-0.15-0.01-0.3-0.01-0.45-0.02c-0.12-0.01-0.25-0.01-0.38-0.02l-0.23-0.02
		c-0.85-0.06-1.69-0.17-2.53-0.33c-0.06-0.01-0.11-0.02-0.16-0.03c-0.1-0.02-0.2-0.04-0.3-0.06c-0.1-0.02-0.2-0.04-0.3-0.07
		c-1.15-0.25-2.28-0.58-3.38-1l-0.02-0.01c-0.08-0.03-0.15-0.06-0.24-0.09s-0.17-0.06-0.26-0.1c-0.79-0.32-1.55-0.7-2.28-1.13
		l-0.17-0.1l-0.05-0.03l-0.11-0.06c-0.01-0.01-0.01-0.01-0.01-0.01c-0.04-0.02-0.08-0.05-0.11-0.07c-0.08-0.05-0.15-0.1-0.23-0.15
		c-0.63-0.4-1.24-0.84-1.82-1.32c-0.07-0.05-0.13-0.11-0.2-0.16c0,0-0.01-0.01-0.01-0.01c-0.07-0.06-0.14-0.11-0.21-0.17
		c-0.78-0.65-1.51-1.37-2.19-2.13c-0.1-0.11-0.2-0.22-0.3-0.34c-0.03-0.03-0.05-0.06-0.08-0.09l-0.02-0.02l-0.08-0.1l-0.05-0.07
		l-0.91-1.17c0-0.01-0.01-0.01-0.01-0.02c-0.04-0.06-0.09-0.12-0.13-0.18c-0.46-0.65-0.88-1.32-1.26-2.01
		c0-0.01-0.01-0.02-0.01-0.03l-0.69-1.35C8.4,36.29,8.4,36.28,8.4,36.27c-0.39-0.85-0.73-1.72-1-2.61l-0.03-0.09
		c0-0.01-0.01-0.01-0.01-0.02l-0.38-1.4c-0.01-0.01-0.01-0.02-0.01-0.03c-0.27-1.14-0.44-2.3-0.52-3.46v-0.01
		c-0.01-0.08-0.01-0.16-0.01-0.24c-0.02-0.27-0.03-0.56-0.03-0.84v-0.29v-0.1c0-0.3,0.01-0.61,0.02-0.94
		c0.02-0.52,0.06-1.02,0.12-1.52l0.03-0.27c0.01-0.04,0.01-0.07,0.01-0.11c0.03-0.2,0.06-0.41,0.09-0.62
		c0.03-0.25,0.09-0.5,0.13-0.75c0.03-0.15,0.06-0.3,0.09-0.45c0.05-0.21,0.09-0.43,0.15-0.64c0.02-0.09,0.05-0.18,0.07-0.27
		c0.02-0.07,0.04-0.14,0.06-0.22c0.05-0.2,0.11-0.4,0.17-0.59s0.12-0.38,0.18-0.58l0.01-0.01c0.05-0.17,0.11-0.33,0.18-0.49
		c0.04-0.1,0.08-0.19,0.11-0.29c0.01-0.03,0.02-0.07,0.03-0.1c0.03-0.09,0.07-0.18,0.11-0.27c0.04-0.11,0.09-0.21,0.13-0.32
		c0.07-0.17,0.14-0.34,0.22-0.5l0.11-0.25c0.04-0.08,0.08-0.16,0.12-0.25c0.04-0.08,0.07-0.16,0.11-0.24
		c0.01-0.02,0.02-0.04,0.03-0.06c0.04-0.1,0.1-0.19,0.14-0.28c0.07-0.14,0.14-0.27,0.22-0.4c0.05-0.09,0.09-0.18,0.15-0.27
		c0.08-0.14,0.16-0.28,0.24-0.42c0.12-0.19,0.23-0.38,0.35-0.57c0.04-0.06,0.07-0.1,0.1-0.16l0.3-0.48c0.15-0.22,0.3-0.45,0.45-0.67
		c0.06-0.09,0.13-0.18,0.19-0.27c0.11-0.16,0.24-0.32,0.36-0.49c0.13-0.18,0.27-0.36,0.41-0.54c0.25-0.32,0.5-0.62,0.77-0.92
		c0.14-0.16,0.28-0.32,0.42-0.47c0.04-0.05,0.09-0.1,0.13-0.15c0.18-0.2,0.36-0.38,0.56-0.58s0.39-0.39,0.6-0.59
		c-0.4,0.33-0.78,0.68-1.16,1.04c-0.05,0.04-0.09,0.08-0.13,0.13c-0.19,0.18-0.38,0.37-0.56,0.57c-0.53,0.55-1.03,1.12-1.5,1.72
		c-0.07,0.09-0.15,0.18-0.21,0.27s-0.13,0.18-0.2,0.27c-0.06,0.07-0.1,0.14-0.16,0.21c-0.42,0.59-0.82,1.19-1.18,1.81
		c-0.06,0.09-0.11,0.18-0.16,0.27c-0.05,0.09-0.1,0.18-0.15,0.27c-0.02,0.04-0.04,0.08-0.07,0.11c-0.34,0.62-0.64,1.25-0.91,1.9
		c-0.04,0.09-0.08,0.18-0.12,0.27c-0.04,0.09-0.07,0.18-0.11,0.27c0,0.01-0.01,0.02-0.01,0.03C7.19,20,6.96,20.66,6.77,21.33
		c-0.03,0.09-0.05,0.18-0.08,0.27c-0.02,0.07-0.04,0.14-0.06,0.21c-0.01,0.02-0.01,0.04-0.02,0.06c-0.2,0.75-0.36,1.52-0.48,2.29
		c-0.02,0.09-0.03,0.18-0.04,0.27c-0.01,0.04-0.01,0.07-0.02,0.11c-0.01,0.06-0.02,0.11-0.02,0.16c-0.11,0.85-0.18,1.71-0.19,2.56
		c0,0.09,0,0.18,0,0.27v0.04c0,0.04,0,0.08,0,0.12v0.11c0.02,5.48,2.03,10.78,5.65,14.9c0.01,0.02,0.03,0.03,0.04,0.05l0.01,0.01
		c1.2,1.36,2.55,2.57,4.03,3.6c0.05,0.04,0.1,0.07,0.15,0.11c0.02,0.02,0.05,0.03,0.07,0.05c0.08,0.06,0.15,0.1,0.23,0.16
		c0.82,0.54,1.67,1.03,2.54,1.46c0.08,0.04,0.16,0.08,0.25,0.12c0.08,0.04,0.16,0.08,0.25,0.11c0.21,0.1,0.42,0.2,0.64,0.29
		l0.04,0.02c0.82,0.33,1.66,0.6,2.52,0.82c0.09,0.03,0.19,0.05,0.28,0.07c0.1,0.02,0.19,0.05,0.29,0.07
		c0.65,0.15,1.32,0.27,1.98,0.35c8.16,1.04,16.16-2.82,20.42-9.85l0.01-0.01c1.09-1.79,1.9-3.74,2.4-5.78
		c0.03-0.14,0.07-0.28,0.1-0.43c0.02-0.07,0.03-0.13,0.04-0.2c0.31-1.44,0.47-2.91,0.47-4.39C48.27,29.16,48.27,28.98,48.25,28.81z
		 M22.63,21.11c-3.76-0.08-0.18-4.66,2.16-4.61C28.55,16.58,24.98,21.16,22.63,21.11z"/>
</g>
</svg>
