<?xml version="1.0" encoding="utf-8"?>
<!-- Generator: Adobe Illustrator 23.0.3, SVG Export Plug-In . SVG Version: 6.00 Build 0)  -->
<svg version="1.1" id="Calque_1" xmlns="http://www.w3.org/2000/svg" xmlns:xlink="http://www.w3.org/1999/xlink" x="0px" y="0px"
	 viewBox="0 0 50 50" style="enable-background:new 0 0 50 50;" xml:space="preserve">
<style type="text/css">
	.st0{fill:#FFFFFF;}
	.st1{fill:#D2AD89;}
	.st2{display:none;}
	.st3{display:inline;fill:#FFFFFF;}
	.st4{display:inline;fill:#D2AD89;}
	.st5{display:none;fill:#D2AD89;}
</style>
<g>
	<path class="st0" d="M20.56,29.2h-7.79c-1.38,0-2.5-1.12-2.5-2.5V12.5c0-1.38,1.12-2.5,2.5-2.5h7.79c1.38,0,2.5,1.12,2.5,2.5V26.7
		C23.06,28.08,21.94,29.2,20.56,29.2z"/>
	<path class="st1" d="M37.23,18.86h-7.66c-1.38,0-2.5-1.12-2.5-2.5V12.5c0-1.38,1.12-2.5,2.5-2.5h7.66c1.38,0,2.5,1.12,2.5,2.5v3.87
		C39.73,17.74,38.61,18.86,37.23,18.86z"/>
	<path class="st1" d="M37.24,40H12.76c-1.38,0-2.5-1.12-2.5-2.5v-1.8c0-1.38,1.12-2.5,2.5-2.5h24.49c1.38,0,2.5,1.12,2.5,2.5v1.8
		C39.74,38.88,38.62,40,37.24,40z"/>
	<path class="st0" d="M37.23,29.52h-7.66c-1.38,0-2.5-1.12-2.5-2.5v-1.65c0-1.38,1.12-2.5,2.5-2.5h7.66c1.38,0,2.5,1.12,2.5,2.5
		v1.65C39.73,28.4,38.61,29.52,37.23,29.52z"/>
</g>
<g class="st2">
	<path class="st3" d="M34,41.5v-33C34,7.12,35.12,6,36.5,6h1C38.88,6,40,7.12,40,8.5v33c0,1.38-1.12,2.5-2.5,2.5h-1
		C35.12,44,34,42.88,34,41.5z"/>
	<path class="st4" d="M22,41.5v-24c0-1.38,1.12-2.5,2.5-2.5h1c1.38,0,2.5,1.12,2.5,2.5v24c0,1.38-1.12,2.5-2.5,2.5h-1
		C23.12,44,22,42.88,22,41.5z"/>
	<path class="st4" d="M10,41.5v-14c0-1.38,1.12-2.5,2.5-2.5h1c1.38,0,2.5,1.12,2.5,2.5v14c0,1.38-1.12,2.5-2.5,2.5h-1
		C11.12,44,10,42.88,10,41.5z"/>
</g>
<path class="st5" d="M37.16,34.57c0,0.59-0.09,1.17-0.26,1.72c-0.91,2.87-3.9,4.56-6.83,3.87c-4.75-1.12-9.58-4.97-12.58-8.71
	c-2.89-3.6-4.66-8.04-4.66-12.68c0-2.73,0.31-6.06,2.63-7.86c3.74-2.91,9.33-0.2,9.33,4.53c0,2.91-2.16,5.32-4.96,5.71
	c1.37,3.69,3.85,7.01,7.14,9.72c1.05-1.27,2.64-2.06,4.41-2.06C34.58,28.8,37.16,31.38,37.16,34.57z"/>
</svg>
