<?xml version="1.0" encoding="utf-8"?>
<!-- Generator: Adobe Illustrator 23.0.3, SVG Export Plug-In . SVG Version: 6.00 Build 0)  -->
<svg version="1.1" id="Calque_1" xmlns="http://www.w3.org/2000/svg" xmlns:xlink="http://www.w3.org/1999/xlink" x="0px" y="0px"
	 viewBox="0 0 50 50" style="enable-background:new 0 0 50 50;" xml:space="preserve">
<style type="text/css">
	.st0{fill:#FFFFFF;}
	.st1{fill:#D2AD89;}
	.st2{display:none;}
	.st3{display:inline;fill:#FFFFFF;}
	.st4{display:inline;fill:#D2AD89;}
	.st5{display:none;fill:#D2AD89;}
</style>
<g>
	<path class="st0" d="M41.5,16h-33C7.12,16,6,14.88,6,13.5v-1C6,11.12,7.12,10,8.5,10h33c1.38,0,2.5,1.12,2.5,2.5v1
		C44,14.88,42.88,16,41.5,16z"/>
	<path class="st0" d="M32.5,28h-24C7.12,28,6,26.88,6,25.5v-1C6,23.12,7.12,22,8.5,22h24c1.38,0,2.5,1.12,2.5,2.5v1
		C35,26.88,33.88,28,32.5,28z"/>
	<path class="st1" d="M22.5,40h-14C7.12,40,6,38.88,6,37.5v-1C6,35.12,7.12,34,8.5,34h14c1.38,0,2.5,1.12,2.5,2.5v1
		C25,38.88,23.88,40,22.5,40z"/>
</g>
<g class="st2">
	<path class="st3" d="M34,41.5v-33C34,7.12,35.12,6,36.5,6h1C38.88,6,40,7.12,40,8.5v33c0,1.38-1.12,2.5-2.5,2.5h-1
		C35.12,44,34,42.88,34,41.5z"/>
	<path class="st4" d="M22,41.5v-24c0-1.38,1.12-2.5,2.5-2.5h1c1.38,0,2.5,1.12,2.5,2.5v24c0,1.38-1.12,2.5-2.5,2.5h-1
		C23.12,44,22,42.88,22,41.5z"/>
	<path class="st4" d="M10,41.5v-14c0-1.38,1.12-2.5,2.5-2.5h1c1.38,0,2.5,1.12,2.5,2.5v14c0,1.38-1.12,2.5-2.5,2.5h-1
		C11.12,44,10,42.88,10,41.5z"/>
</g>
<path class="st5" d="M34.94,32.82c0,0.48-0.07,0.95-0.21,1.4c-0.74,2.34-3.19,3.72-5.58,3.16c-3.88-0.92-7.82-4.06-10.28-7.12
	c-2.36-2.94-3.8-6.57-3.8-10.36c0-2.23,0.26-4.95,2.15-6.42c3.05-2.38,7.63-0.16,7.63,3.7c0,2.38-1.77,4.35-4.05,4.67
	c1.12,3.02,3.15,5.73,5.83,7.94c0.86-1.04,2.16-1.69,3.61-1.69C32.83,28.1,34.94,30.21,34.94,32.82z"/>
</svg>
